<svg width="94" height="40" viewBox="0 0 94 40" fill="none" xmlns="http://www.w3.org/2000/svg">
<g clip-path="url(#clip0_532_1454)">
<path d="M18.01 23.3703V30.5496C18.01 35.5105 13.9785 39.5317 9.005 39.5317C4.03149 39.5317 0 35.5105 0 30.5496C0 25.5887 4.03149 21.5674 9.005 21.5674H16.2037C16.703 21.5674 17.1533 21.7688 17.4819 22.0954C17.8081 22.4207 18.0113 22.8724 18.0113 23.3703H18.01Z" fill="url(#paint0_radial_532_1454)"/>
<path d="M39.6338 8.98217C39.6338 13.9418 35.6023 17.9643 30.6287 17.9643H23.4313C22.4328 17.9643 21.625 17.1573 21.625 16.1627V8.98342C21.6237 4.02127 25.654 0 30.6275 0C35.601 0 39.6325 4.02127 39.6325 8.98217H39.6338Z" fill="url(#paint1_radial_532_1454)"/>
<path d="M18.01 8.98217V16.1614C18.01 16.6594 17.8081 17.1098 17.4807 17.4363C17.1533 17.7617 16.7017 17.9643 16.2025 17.9643H9.00375C4.03149 17.9643 0 13.9418 0 8.98217C0 4.02252 4.03149 0 9.005 0C13.9785 0 18.01 4.02127 18.01 8.98217Z" fill="url(#paint2_radial_532_1454)"/>
<path d="M34.0632 32.9738H39.3026C38.2427 36.7573 34.7594 39.5337 30.6275 39.5337C25.6553 39.5337 21.6238 35.5124 21.6238 30.5515V23.371C21.6238 22.8731 21.8257 22.4239 22.1519 22.0961C22.4792 21.7708 22.9308 21.5693 23.43 21.5693H30.6275C34.7819 21.5693 38.2791 24.3745 39.3189 28.1893H34.1059C33.347 27.082 32.0713 26.3526 30.6275 26.3526H30.5485C28.2681 26.3526 26.4192 28.1968 26.4192 30.4714C26.4192 32.7723 28.2417 34.7054 30.5485 34.7479C31.9985 34.7742 33.2868 34.0661 34.0632 32.9738Z" fill="#27FB6B"/>
<path d="M49.8732 37.2349C49.5332 36.3878 49.3639 35.2055 49.3639 33.6915V15.6309H44.5083V34.1995C44.5083 35.5145 44.6224 36.5767 44.852 37.3838C45.0815 38.1908 45.4767 38.9139 46.0361 39.552H51.2229V39.3719C50.6634 38.7938 50.2131 38.0819 49.8732 37.2349Z" fill="#27FB6B"/>
<path d="M65.8848 21.6104V31.2994C65.8848 32.6344 65.5649 33.7617 64.9252 34.6776C64.2855 35.5947 63.3761 36.0539 62.197 36.0539C61.2186 36.0539 60.5087 35.7148 60.0696 35.0367C59.6293 34.3586 59.4098 33.4127 59.4098 32.1965V21.6104H54.553V33.0035C54.553 35.1568 55.0622 36.8609 56.082 38.1171C57.1018 39.372 58.6096 40.0001 60.609 40.0001C62.0678 40.0001 63.1967 39.7011 63.9958 39.103C64.7158 38.565 65.2325 37.9056 65.5474 37.1249C65.6114 36.9647 65.7669 36.8609 65.94 36.8609C66.1746 36.8609 66.364 37.0498 66.364 37.2838V39.5522H70.7404V21.6104H65.8848Z" fill="#27FB6B"/>
<path d="M84.995 21.5689H80.8469V15.6309H75.99V30.5511C75.99 35.512 80.0227 39.5333 84.995 39.5333C89.9672 39.5333 94 35.512 94 30.5511C94 25.5902 89.9685 21.5689 84.995 21.5689ZM84.995 34.7488C82.6744 34.7488 80.7866 32.8658 80.7866 30.5511V26.3522H84.995C87.3155 26.3522 89.2046 28.2364 89.2046 30.5511C89.2046 32.8658 87.3155 34.7488 84.995 34.7488Z" fill="#27FB6B"/>
</g>
<defs>
<radialGradient id="paint0_radial_532_1454" cx="0" cy="0" r="1" gradientUnits="userSpaceOnUse" gradientTransform="translate(19.8426 19.7945) scale(23.8992 23.8386)">
<stop stop-color="#036D19"/>
<stop offset="1" stop-color="#09A129"/>
</radialGradient>
<radialGradient id="paint1_radial_532_1454" cx="0" cy="0" r="1" gradientUnits="userSpaceOnUse" gradientTransform="translate(19.8426 19.7948) scale(23.8992 23.8386)">
<stop stop-color="#036D19"/>
<stop offset="1" stop-color="#09A129"/>
</radialGradient>
<radialGradient id="paint2_radial_532_1454" cx="0" cy="0" r="1" gradientUnits="userSpaceOnUse" gradientTransform="translate(0.062718 19.7948) scale(23.8992 23.8386)">
<stop stop-color="#036D19"/>
<stop offset="1" stop-color="#09A129"/>
</radialGradient>
<clipPath id="clip0_532_1454">
<rect width="94" height="40" fill="white"/>
</clipPath>
</defs>
</svg>
