<svg width="40" height="40" viewBox="0 0 40 40" fill="none" xmlns="http://www.w3.org/2000/svg">
<path d="M18.01 23.3707V30.5499C18.01 35.5108 13.9785 39.5321 9.005 39.5321C4.03149 39.5321 0 35.5108 0 30.5499C0 25.589 4.03149 21.5677 9.005 21.5677H16.2037C16.703 21.5677 17.1533 21.7692 17.4819 22.0957C17.8081 22.421 18.0113 22.8727 18.0113 23.3707H18.01Z" fill="url(#paint0_radial_1012_792)"/>
<path d="M39.6338 8.98217C39.6338 13.9418 35.6023 17.9643 30.6287 17.9643H23.4313C22.4328 17.9643 21.625 17.1573 21.625 16.1627V8.98342C21.6237 4.02127 25.654 0 30.6275 0C35.601 0 39.6325 4.02127 39.6325 8.98217H39.6338Z" fill="url(#paint1_radial_1012_792)"/>
<path d="M18.01 8.98217V16.1614C18.01 16.6594 17.8081 17.1098 17.4807 17.4363C17.1533 17.7617 16.7017 17.9643 16.2025 17.9643H9.00375C4.03149 17.9643 0 13.9418 0 8.98217C0 4.02252 4.03149 0 9.005 0C13.9785 0 18.01 4.02127 18.01 8.98217Z" fill="url(#paint2_radial_1012_792)"/>
<path d="M34.0632 32.9734H39.3026C38.2427 36.757 34.7594 39.5333 30.6275 39.5333C25.6553 39.5333 21.6238 35.512 21.6238 30.5511V23.3707C21.6238 22.8727 21.8257 22.4235 22.1519 22.0957C22.4792 21.7704 22.9308 21.569 23.43 21.569H30.6275C34.7819 21.569 38.2791 24.3741 39.3189 28.1889H34.1059C33.347 27.0816 32.0713 26.3522 30.6275 26.3522H30.5485C28.2681 26.3522 26.4192 28.1964 26.4192 30.4711C26.4192 32.772 28.2417 34.705 30.5485 34.7476C31.9985 34.7738 33.2868 34.0657 34.0632 32.9734Z" fill="#27FB6B"/>
<defs>
<radialGradient id="paint0_radial_1012_792" cx="0" cy="0" r="1" gradientUnits="userSpaceOnUse" gradientTransform="translate(19.8426 19.7948) scale(23.8992 23.8386)">
<stop stop-color="#036D19"/>
<stop offset="1" stop-color="#09A129"/>
</radialGradient>
<radialGradient id="paint1_radial_1012_792" cx="0" cy="0" r="1" gradientUnits="userSpaceOnUse" gradientTransform="translate(19.8426 19.7948) scale(23.8992 23.8386)">
<stop stop-color="#036D19"/>
<stop offset="1" stop-color="#09A129"/>
</radialGradient>
<radialGradient id="paint2_radial_1012_792" cx="0" cy="0" r="1" gradientUnits="userSpaceOnUse" gradientTransform="translate(0.062718 19.7948) scale(23.8992 23.8386)">
<stop stop-color="#036D19"/>
<stop offset="1" stop-color="#09A129"/>
</radialGradient>
</defs>
</svg>
