<svg width="64" height="67" viewBox="0 0 64 67" fill="none" xmlns="http://www.w3.org/2000/svg">
<g filter="url(#filter0_dii_318_10209)">
<path fill-rule="evenodd" clip-rule="evenodd" d="M30.9622 1.80551C30.2976 2.04251 29.6346 2.52638 29.1156 3.15301C28.8722 3.44701 27.7627 4.82263 26.6501 6.21001C25.5375 7.59738 24.5205 8.76638 24.3901 8.80776C24.2597 8.84913 22.6984 8.48301 20.9202 7.99426C16.2789 6.71838 14.9674 6.69088 13.8416 7.84613C12.9836 8.72663 12.8972 9.23238 12.631 14.9296C12.5257 17.183 12.4774 17.5783 12.2831 17.7725C12.159 17.8965 10.4595 18.6166 8.50636 19.3725C6.55324 20.1285 4.75049 20.8889 4.50011 21.0624C3.93724 21.4525 3.54099 21.9775 3.30524 22.6454C2.84936 23.9376 3.05686 24.4585 5.57436 28.3394C6.98749 30.5178 7.74699 31.8034 7.74811 32.0194C7.74924 32.2233 7.40549 32.8739 6.85649 33.7069C5.23086 36.1734 3.59111 38.806 3.40399 39.25C3.30249 39.4906 3.21936 40.0363 3.21911 40.4625C3.21861 41.4086 3.69124 42.3533 4.46149 42.946C4.77761 43.1893 6.32049 43.8496 8.68124 44.7519C11.5341 45.8421 12.4267 46.234 12.5055 46.4309C12.6007 46.669 13.0077 52.8159 13.0025 53.9375C13.0011 54.2324 13.1469 54.7475 13.3575 55.1929C14.1644 56.8984 15.8244 57.5163 17.8931 56.8811C19.4846 56.3924 24.2234 55.125 24.459 55.125C24.7744 55.125 25.0714 55.4521 27.4779 58.4504C28.5871 59.8325 29.7447 61.1938 30.0502 61.4754C30.7217 62.0944 31.7504 62.4409 32.5574 62.3198C33.7059 62.1476 34.2365 61.661 36.9269 58.3125C38.634 56.1879 39.5256 55.175 39.712 55.1485C39.8627 55.127 41.6909 55.5694 43.7744 56.1316C47.0181 57.007 47.6626 57.1449 48.259 57.0908C49.4857 56.9798 50.377 56.343 50.8717 55.2241C51.0989 54.7105 51.156 54.155 51.3216 50.8491C51.426 48.7665 51.551 46.8656 51.5995 46.625C51.6846 46.2019 51.7326 46.1699 53.0625 45.6521C59.5042 43.1436 59.2884 43.2455 60.0489 42.3571C60.889 41.3755 61.0654 40.0588 60.5209 38.8324C60.3939 38.5465 59.381 36.9124 58.27 35.2013C57.048 33.3191 56.25 31.9681 56.25 31.7819C56.25 31.5943 57.0397 30.2694 58.27 28.3931C59.381 26.6988 60.4056 25.0594 60.547 24.75C60.9261 23.9201 60.9054 22.7321 60.499 22.005C59.9507 21.0239 59.3261 20.6798 55.414 19.2033C53.4331 18.4556 51.7292 17.7656 51.6274 17.6699C51.4812 17.5325 51.3961 16.6611 51.2234 13.5369C50.9831 9.19201 50.8999 8.74113 50.183 7.90363C49.5787 7.19776 48.7956 6.84376 47.8342 6.84226C47.0012 6.84088 46.3519 6.99251 42.2804 8.13963C39.7037 8.86551 39.613 8.88188 39.2804 8.67951C39.0919 8.56463 37.9531 7.23563 36.75 5.72601C35.5469 4.21638 34.3152 2.76026 34.013 2.49001C33.148 1.71688 31.9589 1.45001 30.9622 1.80551ZM40.5625 22.615C40.2274 22.7723 38.0226 24.8938 33.8759 29.0494L27.6892 35.2491L25.5634 33.1293C24.2351 31.8048 23.2631 30.9373 22.9727 30.8173C21.9439 30.3916 20.7922 30.6794 20.0246 31.5535C19.3285 32.3465 19.2296 33.3668 19.7519 34.3691C20.0501 34.9418 26.05 40.9049 26.625 41.2004C27.2895 41.5419 28.3399 41.4938 29.0174 41.0909C29.8357 40.6043 43.8185 26.549 44.0574 25.9728C44.9434 23.8354 42.6527 21.6346 40.5625 22.615Z" fill="url(#paint0_linear_318_10209)"/>
</g>
<defs>
<filter id="filter0_dii_318_10209" x="1.11313" y="0.650391" width="61.7193" height="65.6934" filterUnits="userSpaceOnUse" color-interpolation-filters="sRGB">
<feFlood flood-opacity="0" result="BackgroundImageFix"/>
<feColorMatrix in="SourceAlpha" type="matrix" values="0 0 0 0 0 0 0 0 0 0 0 0 0 0 0 0 0 0 127 0" result="hardAlpha"/>
<feOffset dy="2"/>
<feGaussianBlur stdDeviation="1"/>
<feComposite in2="hardAlpha" operator="out"/>
<feColorMatrix type="matrix" values="0 0 0 0 0 0 0 0 0 0 0 0 0 0 0 0 0 0 0.25 0"/>
<feBlend mode="normal" in2="BackgroundImageFix" result="effect1_dropShadow_318_10209"/>
<feBlend mode="normal" in="SourceGraphic" in2="effect1_dropShadow_318_10209" result="shape"/>
<feColorMatrix in="SourceAlpha" type="matrix" values="0 0 0 0 0 0 0 0 0 0 0 0 0 0 0 0 0 0 127 0" result="hardAlpha"/>
<feOffset dy="-1"/>
<feGaussianBlur stdDeviation="0.5"/>
<feComposite in2="hardAlpha" operator="arithmetic" k2="-1" k3="1"/>
<feColorMatrix type="matrix" values="0 0 0 0 0.0296296 0 0 0 0 0.136296 0 0 0 0 0.16 0 0 0 0.16 0"/>
<feBlend mode="normal" in2="shape" result="effect2_innerShadow_318_10209"/>
<feColorMatrix in="SourceAlpha" type="matrix" values="0 0 0 0 0 0 0 0 0 0 0 0 0 0 0 0 0 0 127 0" result="hardAlpha"/>
<feOffset dy="1"/>
<feGaussianBlur stdDeviation="0.5"/>
<feComposite in2="hardAlpha" operator="arithmetic" k2="-1" k3="1"/>
<feColorMatrix type="matrix" values="0 0 0 0 0.833557 0 0 0 0 0.983751 0 0 0 0 0.881732 0 0 0 0.4 0"/>
<feBlend mode="lighten" in2="effect2_innerShadow_318_10209" result="effect3_innerShadow_318_10209"/>
</filter>
<linearGradient id="paint0_linear_318_10209" x1="31.9728" y1="1.65039" x2="31.9728" y2="62.3437" gradientUnits="userSpaceOnUse">
<stop stop-color="#27FB6B"/>
<stop offset="1" stop-color="#09A129"/>
</linearGradient>
</defs>
</svg>
